<?xml version="1.0" encoding="UTF-8" standalone="no"?>
<!-- Created with Inkscape (http://www.inkscape.org/) -->

<svg
   width="36.252434mm"
   height="38.068275mm"
   viewBox="0 0 36.252434 38.068275"
   version="1.1"
   id="svg1"
   inkscape:version="1.3.2 (091e20e, 2023-11-25, custom)"
   sodipodi:docname="Block_Icon_Symbol_Final.svg"
   xmlns:inkscape="http://www.inkscape.org/namespaces/inkscape"
   xmlns:sodipodi="http://sodipodi.sourceforge.net/DTD/sodipodi-0.dtd"
   xmlns="http://www.w3.org/2000/svg"
   xmlns:svg="http://www.w3.org/2000/svg">
  <sodipodi:namedview
     id="namedview1"
     pagecolor="#ffffff"
     bordercolor="#000000"
     borderopacity="0.25"
     inkscape:showpageshadow="2"
     inkscape:pageopacity="0.0"
     inkscape:pagecheckerboard="0"
     inkscape:deskcolor="#d1d1d1"
     inkscape:document-units="mm"
     inkscape:zoom="0.73139029"
     inkscape:cx="-11.621702"
     inkscape:cy="144.24583"
     inkscape:window-width="1920"
     inkscape:window-height="1017"
     inkscape:window-x="1912"
     inkscape:window-y="32"
     inkscape:window-maximized="1"
     inkscape:current-layer="layer1" />
  <defs
     id="defs1" />
  <g
     inkscape:label="Layer 1"
     inkscape:groupmode="layer"
     id="layer1"
     transform="translate(-108.27249,-110.43172)">
    <g
       id="g30"
       transform="rotate(30,356.96878,151.90327)"
       style="display:inline">
      <path
         id="path28"
         style="fill:#000000;stroke-width:0.264583"
         inkscape:transform-center-x="0.18216401"
         inkscape:transform-center-y="-0.330275"
         d="m 144.4002,229.14024 v 0.008 c -0.036,0.0459 -6.58943,8.38519 -15.69155,6.65386 0,0 -4.9402,26.83385 15.69155,34.47335 v 0 h 0.007 c 20.63175,-7.6395 15.69155,-34.47335 15.69155,-34.47335 -9.10114,1.73115 -15.65419,-6.6057 -15.69155,-6.65334 v -0.008 l -0.004,0.004 z"
         sodipodi:nodetypes="ccccccccccc" />
      <path
         id="path29"
         style="opacity:1;fill:#ffffff;stroke-width:0.264583"
         inkscape:transform-center-x="0.18216401"
         inkscape:transform-center-y="-0.330275"
         d="m 144.0625,233.16211 c -3.56149,3.19799 -8.20164,5.39996 -13.04883,5.39844 -0.20951,3.28999 -0.26576,6.55776 0.22815,9.8073 0.75161,5.35289 2.79048,10.97601 6.85976,14.82162 1.81603,1.74713 3.96581,3.21659 6.34178,4.06248 1.16596,-0.39131 2.25494,-1.04386 3.30494,-1.69158 4.45685,-2.92883 7.60841,-7.63376 8.90521,-12.78232 1.28375,-4.61336 1.51232,-9.51113 1.14141,-14.23508 -3.34916,0.0461 -6.65963,-1.06375 -9.52046,-2.77353 -1.38776,-0.83755 -2.6895,-1.81886 -3.87016,-2.9296 -0.11394,0.10743 -0.22787,0.21485 -0.3418,0.32227 z" />
      <path
         style="fill:#000000;stroke-width:0.185364"
         d="m 144.4043,235.36554 c 0,0 4.60375,5.88339 10.99815,4.6671 0,0 3.46105,18.79949 -10.99335,24.15165 z"
         id="path30"
         inkscape:transform-center-x="-0.12762072"
         inkscape:transform-center-y="-0.23138126" />
    </g>
  </g>
</svg>
