<?xml version="1.0" encoding="UTF-8" standalone="no"?>
<!-- Created with Inkscape (http://www.inkscape.org/) -->

<svg
   width="36.252434mm"
   height="38.068275mm"
   viewBox="0 0 36.252434 38.068276"
   version="1.1"
   id="svg1"
   inkscape:version="1.3.2 (091e20e, 2023-11-25, custom)"
   sodipodi:docname="Heal_Icon_Symbol_Final.svg"
   xmlns:inkscape="http://www.inkscape.org/namespaces/inkscape"
   xmlns:sodipodi="http://sodipodi.sourceforge.net/DTD/sodipodi-0.dtd"
   xmlns="http://www.w3.org/2000/svg"
   xmlns:svg="http://www.w3.org/2000/svg">
  <sodipodi:namedview
     id="namedview1"
     pagecolor="#ffffff"
     bordercolor="#000000"
     borderopacity="0.25"
     inkscape:showpageshadow="2"
     inkscape:pageopacity="0.0"
     inkscape:pagecheckerboard="0"
     inkscape:deskcolor="#d1d1d1"
     inkscape:document-units="mm"
     inkscape:zoom="0.73139029"
     inkscape:cx="37.599624"
     inkscape:cy="-10.254443"
     inkscape:window-width="1920"
     inkscape:window-height="1017"
     inkscape:window-x="1912"
     inkscape:window-y="32"
     inkscape:window-maximized="1"
     inkscape:current-layer="layer1" />
  <defs
     id="defs1" />
  <g
     inkscape:label="Layer 1"
     inkscape:groupmode="layer"
     id="layer1"
     transform="translate(-99.710485,-79.407901)">
    <g
       id="g110"
       transform="rotate(30,410.57902,120.41445)"
       inkscape:label="heal"
       style="display:inline">
      <path
         id="path105"
         style="fill:#000000;stroke-width:0.264583"
         inkscape:transform-center-x="0.18216401"
         inkscape:transform-center-y="-0.330275"
         d="m 144.4002,229.14024 v 0.008 c -0.036,0.0459 -6.58943,8.38519 -15.69155,6.65386 0,0 -4.9402,26.83385 15.69155,34.47335 v 0 h 0.007 c 20.63175,-7.6395 15.69155,-34.47335 15.69155,-34.47335 -9.10114,1.73115 -15.65419,-6.6057 -15.69155,-6.65334 v -0.008 l -0.004,0.004 z"
         sodipodi:nodetypes="ccccccccccc" />
      <path
         id="path106"
         style="opacity:1;fill:#ffffff;stroke-width:0.264583"
         inkscape:transform-center-x="0.18216401"
         inkscape:transform-center-y="-0.330275"
         d="m 144.0625,233.16211 c -3.56149,3.19799 -8.20164,5.39996 -13.04883,5.39844 -0.20951,3.28999 -0.26576,6.55776 0.22815,9.8073 0.75161,5.35289 2.79048,10.97601 6.85976,14.82162 1.81603,1.74713 3.96581,3.21659 6.34178,4.06248 1.16596,-0.39131 2.25494,-1.04386 3.30494,-1.69158 4.45685,-2.92883 7.60841,-7.63376 8.90521,-12.78232 1.28375,-4.61336 1.51232,-9.51113 1.14141,-14.23508 -3.34916,0.0461 -6.65963,-1.06375 -9.52046,-2.77353 -1.38776,-0.83755 -2.6895,-1.81886 -3.87016,-2.9296 -0.11394,0.10743 -0.22787,0.21485 -0.3418,0.32227 z" />
      <g
         id="g109"
         transform="matrix(1.0785581,0,0,1.0785581,-189.01031,-24.625361)"
         style="display:inline">
        <path
           id="path107"
           style="fill:#000000;stroke-width:0.15629"
           d="m 303.85848,245.10019 a 6.3297504,6.3297504 0 0 0 -6.32984,6.32985 c 0,0 0.008,0.11356 0.0243,0.27543 a 6.3297504,6.3297504 0 0 0 0.47335,2.13786 c 0.42831,1.27906 1.22191,2.83293 2.70268,4.06177 0,0 8.40414,5.08909 8.40414,9.73067 0,-4.64158 8.40414,-9.73067 8.40414,-9.73067 1.48076,-1.22884 2.27437,-2.78271 2.70267,-4.06177 a 6.3297504,6.3297504 0 0 0 0.47336,-2.13786 c 0.0161,-0.16187 0.0243,-0.27543 0.0243,-0.27543 a 6.3297504,6.3297504 0 0 0 -6.32985,-6.32985 6.3297504,6.3297504 0 0 0 -5.27151,2.83652 6.3297504,6.3297504 0 0 0 -5.27772,-2.83652 z" />
        <path
           id="path108"
           style="fill:#ffffff;stroke-width:0.15629"
           d="m 314.28348,246.70232 c -1.91049,-0.0423 -3.38749,1.41301 -4.46354,2.82136 -0.89144,0.57128 -1.94334,-0.25398 -2.28941,-1.08572 -1.90628,-2.52281 -6.44135,-2.17453 -7.81345,0.72379 -1.17258,2.15203 -0.33348,4.84225 1.15358,6.61487 1.32904,1.49813 3.20514,2.33724 4.66613,3.69086 1.35405,1.10181 2.54165,2.38925 3.59825,3.77586 2.06554,-2.93839 5.11396,-4.92367 7.91602,-7.07813 1.55399,-1.68381 2.57758,-4.21129 1.75972,-6.46442 -0.71559,-1.78674 -2.57254,-3.11858 -4.5273,-2.99847 z" />
        <path
           id="path109"
           style="fill:#000000;stroke-width:0.15629"
           d="m 314.52863,247.75378 c -0.0718,-2.9e-4 -0.14387,0.002 -0.21601,0.007 -1.7238,-0.0326 -2.8653,1.46784 -3.87883,2.63447 -0.40207,0.27486 -0.85064,0.38184 -1.29811,0.36328 v 10.75025 c 2.10823,-2.54487 4.9689,-4.28967 7.44502,-6.42183 1.32858,-1.58572 2.10712,-4.12726 0.71055,-5.91023 -0.66001,-0.83656 -1.6859,-1.41879 -2.76262,-1.42317 z" />
      </g>
    </g>
  </g>
</svg>
