<?xml version="1.0" encoding="UTF-8" standalone="no"?>
<!-- Created with Inkscape (http://www.inkscape.org/) -->

<svg
   width="71.781746mm"
   height="73.674042mm"
   viewBox="0 0 71.781746 73.674042"
   version="1.1"
   id="svg1"
   inkscape:version="1.3.2 (091e20e, 2023-11-25, custom)"
   sodipodi:docname="Strong_Icon_Final.svg"
   xmlns:inkscape="http://www.inkscape.org/namespaces/inkscape"
   xmlns:sodipodi="http://sodipodi.sourceforge.net/DTD/sodipodi-0.dtd"
   xmlns="http://www.w3.org/2000/svg"
   xmlns:svg="http://www.w3.org/2000/svg">
  <sodipodi:namedview
     id="namedview1"
     pagecolor="#ffffff"
     bordercolor="#000000"
     borderopacity="0.25"
     inkscape:showpageshadow="2"
     inkscape:pageopacity="0.0"
     inkscape:pagecheckerboard="0"
     inkscape:deskcolor="#d1d1d1"
     inkscape:document-units="mm"
     inkscape:zoom="0.73139029"
     inkscape:cx="146.98035"
     inkscape:cy="311.05144"
     inkscape:window-width="1920"
     inkscape:window-height="1017"
     inkscape:window-x="1912"
     inkscape:window-y="32"
     inkscape:window-maximized="1"
     inkscape:current-layer="layer1" />
  <defs
     id="defs1" />
  <g
     inkscape:label="Layer 1"
     inkscape:groupmode="layer"
     id="layer1"
     transform="translate(-66.17632,-66.262954)">
    <rect
       style="display:inline;fill:#ffffff;stroke-width:0.264583"
       id="rect1"
       width="43.229977"
       height="43.229977"
       x="43.875443"
       y="91.940285"
       transform="rotate(-15)" />
    <g
       id="g27"
       transform="rotate(30,63.124874,115.42371)"
       style="display:inline">
      <rect
         style="opacity:1;fill:#000000;stroke-width:0.247502"
         id="rect22"
         width="8.2020836"
         height="18.753521"
         x="100.89895"
         y="98.431343" />
      <rect
         style="opacity:1;fill:#000000;stroke-width:0.230495"
         id="rect23"
         width="34.050137"
         height="7.9512687"
         x="87.97493"
         y="93.005272" />
      <path
         id="path23"
         style="opacity:1;fill:#000000;stroke-width:0.696208"
         d="M 105,38.287169 96.128197,57.74954 V 95.651633 H 113.87181 V 57.74954 Z"
         sodipodi:nodetypes="cccccc" />
      <path
         id="path24"
         style="opacity:1;fill:#ffffff;stroke-width:0.696208"
         d="m 104.51758,45.732091 c -1.91397,4.197958 -3.82867,8.395587 -5.742189,12.59375 V 93.005273 H 111.22461 V 58.325841 C 109.15013,53.775532 107.07577,49.225171 105,44.67545 c -0.16081,0.352214 -0.32161,0.704427 -0.48242,1.056641 z"
         sodipodi:nodetypes="ccccccc" />
      <path
         id="path25"
         style="opacity:1;fill:#000000;stroke-width:0.264583"
         d="m 104.99979,48.177383 v 43.23974 h 1.58802 3.04891 V 58.671316 c -1.01628,-2.227862 -2.03263,-4.45545 -3.04891,-6.683313 z"
         sodipodi:nodetypes="ccccccc" />
      <path
         id="path26"
         style="opacity:1;fill:#ffffff;stroke-width:0.247502"
         d="m 103.54512,114.53857 c 0.97005,0 1.94011,0 2.91016,0 0,-4.48698 0,-8.97396 0,-13.46094 -0.97005,0 -1.94011,0 -2.91016,0 0,4.48698 0,8.97396 0,13.46094 z" />
      <path
         id="path27"
         style="opacity:1;fill:#ffffff;stroke-width:0.230495"
         d="m 90.621298,98.309865 c 9.585932,0 19.171872,0 28.757812,0 0,-0.88607 0,-1.77214 0,-2.6582 -9.58594,0 -19.17188,0 -28.757812,0 0,0.88606 0,1.77213 0,2.6582 z" />
    </g>
  </g>
</svg>
