<?xml version="1.0" encoding="UTF-8" standalone="no"?>
<!-- Created with Inkscape (http://www.inkscape.org/) -->

<svg
   width="87.931252mm"
   height="73.674004mm"
   viewBox="0 0 87.931252 73.674004"
   version="1.1"
   id="svg1"
   inkscape:version="1.3.2 (091e20e, 2023-11-25, custom)"
   sodipodi:docname="Weak_Icon_Final.svg"
   xmlns:inkscape="http://www.inkscape.org/namespaces/inkscape"
   xmlns:sodipodi="http://sodipodi.sourceforge.net/DTD/sodipodi-0.dtd"
   xmlns="http://www.w3.org/2000/svg"
   xmlns:svg="http://www.w3.org/2000/svg">
  <sodipodi:namedview
     id="namedview1"
     pagecolor="#ffffff"
     bordercolor="#000000"
     borderopacity="0.25"
     inkscape:showpageshadow="2"
     inkscape:pageopacity="0.0"
     inkscape:pagecheckerboard="0"
     inkscape:deskcolor="#d1d1d1"
     inkscape:document-units="mm"
     inkscape:zoom="0.73139029"
     inkscape:cx="252.2593"
     inkscape:cy="346.60017"
     inkscape:window-width="1920"
     inkscape:window-height="1017"
     inkscape:window-x="1912"
     inkscape:window-y="32"
     inkscape:window-maximized="1"
     inkscape:current-layer="layer1" />
  <defs
     id="defs1" />
  <g
     inkscape:label="Layer 1"
     inkscape:groupmode="layer"
     id="layer1"
     transform="translate(-38.19133,-56.922893)">
    <rect
       style="display:inline;fill:#ffffff;stroke-width:0.264583"
       id="rect64"
       width="43.229977"
       height="43.229977"
       x="19.261404"
       y="75.67543"
       transform="rotate(-15)" />
    <g
       id="g76"
       transform="rotate(30,66.149669,56.996966)"
       inkscape:label="weak"
       style="display:inline">
      <path
         style="display:inline;opacity:1;fill:#ffffff;stroke-width:0.264583"
         d="m 273.74506,189.98582 -4.39148,7.60677 15.36412,8.87595 7.96142,-13.78999 -16.99988,-6.04271 z"
         id="path65"
         transform="rotate(-30,-29.342191,464.00809)" />
      <rect
         style="opacity:1;fill:#000000;stroke-width:0.247502"
         id="rect65"
         width="8.2020836"
         height="18.753521"
         x="100.89895"
         y="98.431343" />
      <rect
         style="opacity:1;fill:#000000;stroke-width:0.230495"
         id="rect66"
         width="34.050137"
         height="7.9512687"
         x="87.97493"
         y="93.005272" />
      <path
         id="path66"
         style="opacity:1;fill:#000000;stroke-width:0.696208"
         d="m 104.99976,38.287191 -8.87146,19.462028 -3.79e-4,17.404999 9.514229,-9.270205 2.71481,10.314253 5.51476,-5.639997 -1.8e-4,-12.808831 z m -2.38399,35.824952 -6.487582,9.825463 -1.7e-5,11.713986 17.743689,-4e-5 2e-5,-18.205573 -5.26268,8.543639 z" />
      <path
         id="path67"
         style="opacity:1;fill:#ffffff;stroke-width:0.696208"
         d="m 104.51758,45.732091 c -1.91397,4.197958 -3.82867,8.395587 -5.742189,12.59375 V 93.005273 H 111.22461 V 58.325841 C 109.15013,53.775532 107.07577,49.225171 105,44.67545 c -0.16081,0.352214 -0.32161,0.704427 -0.48242,1.056641 z"
         sodipodi:nodetypes="ccccccc" />
      <path
         id="path68"
         style="opacity:1;fill:#000000;stroke-width:0.264583"
         d="m 105.00002,48.177477 -2.9e-4,18.332231 0.64242,-0.625695 2.71481,10.314253 1.27978,-1.308733 8e-5,-16.217979 c -1.01628,-2.22786 -2.03278,-4.455775 -3.04906,-6.683636 z m -7e-5,30.659499 -1.4e-4,12.579876 1.58801,3.01e-4 3.04912,-1.17e-4 6e-5,-7.096091 -1.0278,1.668673 z" />
      <path
         id="path69"
         style="opacity:1;fill:#ffffff;stroke-width:0.247502"
         d="m 103.54512,114.53857 c 0.97005,0 1.94011,0 2.91016,0 0,-4.48698 0,-8.97396 0,-13.46094 -0.97005,0 -1.94011,0 -2.91016,0 0,4.48698 0,8.97396 0,13.46094 z" />
      <path
         id="path70"
         style="opacity:1;fill:#ffffff;stroke-width:0.230495"
         d="m 90.621298,98.309865 c 9.585932,0 19.171872,0 28.757812,0 0,-0.88607 0,-1.77214 0,-2.6582 -9.58594,0 -19.17188,0 -28.757812,0 0,0.88606 0,1.77213 0,2.6582 z" />
      <path
         style="opacity:1;fill:#000000;stroke-width:0.264583"
         d="m 115.16084,69.461471 8.14681,-17.881472 7.35305,4.503984 z"
         id="path71" />
      <path
         style="opacity:1;fill:#000000;stroke-width:0.264583"
         d="m 126.62355,61.439273 7.81719,-5.917466 3.86955,6.51519 -10.38964,1.461802 z"
         id="path72" />
      <path
         style="opacity:1;fill:#000000;stroke-width:0.264583"
         d="m 116.03877,76.407682 7.74962,-2.854009 -1.17669,4.135863 z"
         id="path73" />
      <path
         style="opacity:1;fill:#000000;stroke-width:0.264583"
         d="M 94.982854,74.957857 87.696382,71.068568 87.199823,75.63246 Z"
         id="path74" />
      <path
         style="opacity:1;fill:#000000;stroke-width:0.264583"
         d="m 93.596166,73.085209 0.940754,-0.619523 -1.720428,-4.964244 -2.026775,1.781189 z"
         id="path75" />
      <path
         style="opacity:1;fill:#000000;stroke-width:0.264583"
         d="m 94.428544,84.977973 -7.146885,5.348315 2.499294,1.153905 z"
         id="path76" />
    </g>
  </g>
</svg>
