<?xml version="1.0" encoding="UTF-8" standalone="no"?>
<!-- Created with Inkscape (http://www.inkscape.org/) -->

<svg
   width="61.664326mm"
   height="50.263741mm"
   viewBox="0 0 61.664326 50.26374"
   version="1.1"
   id="svg1"
   sodipodi:docname="Deflect_Icon_Symbol_Final.svg"
   inkscape:version="1.3.2 (091e20e, 2023-11-25, custom)"
   xmlns:inkscape="http://www.inkscape.org/namespaces/inkscape"
   xmlns:sodipodi="http://sodipodi.sourceforge.net/DTD/sodipodi-0.dtd"
   xmlns="http://www.w3.org/2000/svg"
   xmlns:svg="http://www.w3.org/2000/svg">
  <sodipodi:namedview
     id="namedview1"
     pagecolor="#ffffff"
     bordercolor="#000000"
     borderopacity="0.25"
     inkscape:showpageshadow="2"
     inkscape:pageopacity="0.0"
     inkscape:pagecheckerboard="0"
     inkscape:deskcolor="#d1d1d1"
     inkscape:document-units="mm"
     inkscape:zoom="0.73139029"
     inkscape:cx="33.497847"
     inkscape:cy="126.47146"
     inkscape:window-width="1920"
     inkscape:window-height="1017"
     inkscape:window-x="1912"
     inkscape:window-y="32"
     inkscape:window-maximized="1"
     inkscape:current-layer="layer1" />
  <defs
     id="defs1" />
  <g
     inkscape:label="Layer 1"
     inkscape:groupmode="layer"
     id="layer1"
     transform="translate(-74.167834,-114.87625)">
    <g
       id="g94"
       transform="rotate(30,321.5717,144.00216)"
       inkscape:label="repel"
       style="display:inline">
      <path
         id="path91"
         style="display:inline;fill:#ffffff;stroke-width:0.264583"
         inkscape:transform-center-x="0.18216401"
         inkscape:transform-center-y="-0.330275"
         d="m 144.4002,229.14024 v 0.008 c -0.036,0.0459 -6.58943,8.38519 -15.69155,6.65386 0,0 -4.9402,26.83385 15.69155,34.47335 v 0 h 0.007 c 20.63175,-7.6395 15.69155,-34.47335 15.69155,-34.47335 -9.10114,1.73115 -15.65419,-6.6057 -15.69155,-6.65334 v -0.008 l -0.004,0.004 z"
         sodipodi:nodetypes="ccccccccccc" />
      <path
         id="path92"
         style="display:inline;fill:#000000;stroke-width:0.264583"
         inkscape:transform-center-x="0.18216401"
         inkscape:transform-center-y="-0.330275"
         d="m 128.70852,235.80196 c 0,0 -4.94007,26.83379 15.6916,34.47329 l 0.007,3e-5 c 3.12182,-1.15595 5.65486,-2.75341 7.71145,-4.62884 l -7.71162,-10.88368 10.22384,8.17599 c 1.25105,-1.59613 2.24745,-3.31325 3.04406,-5.07937 -6.436,-2.78237 -13.11651,-5.6735 -13.11651,-5.6735 l 0.0297,-1.41104 15.12531,0.76162 c 0.24747,-1.15673 0.43998,-2.3016 0.57565,-3.41196 l -15.68643,2.37164 0.0402,-1.91476 15.95976,-7.00179 c -0.079,-3.46192 -0.50376,-5.77767 -0.50376,-5.77767 -0.96662,0.18386 -1.90262,0.24857 -2.80696,0.22729 l -12.88597,11.05039 10.41585,-11.33623 c -6.25132,-1.30531 -10.38496,-6.55657 -10.41461,-6.59437 l -3e-5,-0.008 -0.004,0.004 -0.003,-0.004 -2.3e-4,0.008 c -0.036,0.0459 -6.58964,8.38503 -15.69172,6.6537 z" />
      <path
         id="path93"
         style="opacity:1;fill:#ffffff;stroke-width:0.264583"
         inkscape:transform-center-x="0.18216401"
         inkscape:transform-center-y="-0.330275"
         d="m 144.0625,233.16211 c -3.56149,3.19799 -8.20164,5.39996 -13.04883,5.39844 -0.20951,3.28999 -0.26576,6.55776 0.22815,9.8073 0.75161,5.35289 2.79048,10.97601 6.85976,14.82162 1.81603,1.74713 3.96581,3.21659 6.34178,4.06248 1.16596,-0.39131 2.25494,-1.04386 3.30494,-1.69158 4.45685,-2.92883 7.60841,-7.63376 8.90521,-12.78232 1.28375,-4.61336 1.51232,-9.51113 1.14141,-14.23508 -3.34916,0.0461 -6.65963,-1.06375 -9.52046,-2.77353 -1.38776,-0.83755 -2.6895,-1.81886 -3.87016,-2.9296 -0.11394,0.10743 -0.22787,0.21485 -0.3418,0.32227 z" />
      <path
         id="path94"
         style="fill:#000000;stroke-width:0.185364"
         inkscape:transform-center-x="-0.12762072"
         inkscape:transform-center-y="-0.23138126"
         d="m 112.80678,230.90094 -0.76688,1.27833 c 0.40707,0.70507 9.87314,17.42635 9.87314,17.42635 l -6.36643,-15.33784 25.37189,16.33559 -29.73571,23.8012 c -0.0243,0.2236 22.24145,-11.87357 33.22434,-19.64181 l 6.43463,5.14548 c 1.08337,-1.19428 1.93366,-2.51056 2.6038,-3.87821 -3.6633,-1.58491 -8.88704,-3.84415 -8.88704,-3.84415 l 0.0297,-1.41104 10.48458,0.52782 c 0.18654,-0.83142 0.33495,-1.65597 0.43787,-2.45585 l -10.90792,1.64933 0.0402,-1.91476 11.09697,-4.86794 c -0.0754,-2.2108 -0.33739,-3.68082 -0.33739,-3.68082 -1.00861,0.19185 -1.96584,0.1922 -2.87427,0.0818 l -8.12179,6.96497 -27.80248,-14.10765 16.55804,-2.85876 z m 31.59966,16.17841 6.65681,-7.24515 c -4.03481,-1.12135 -6.6591,-4.4687 -6.6591,-4.4687 z m 6.9e-4,7.68341 0.002,9.4216 c 1.87601,-0.69465 3.44432,-1.61932 4.7635,-2.69651 z"
         sodipodi:nodetypes="cccccccccccccccccccccsccccccccc" />
    </g>
  </g>
</svg>
